<?xml version="1.0" encoding="UTF-8" standalone="no"?>
<svg
   xmlns:dc="http://purl.org/dc/elements/1.1/"
   xmlns:cc="http://creativecommons.org/ns#"
   xmlns:rdf="http://www.w3.org/1999/02/22-rdf-syntax-ns#"
   xmlns:svg="http://www.w3.org/2000/svg"
   xmlns="http://www.w3.org/2000/svg"
   xmlns:sodipodi="http://sodipodi.sourceforge.net/DTD/sodipodi-0.dtd"
   xmlns:inkscape="http://www.inkscape.org/namespaces/inkscape"
   version="1.1"
   id="svg2"
   xml:space="preserve"
   width="413.33334"
   height="89.09333"
   viewBox="0 0 413.33334 89.09333"
   sodipodi:docname="Brandem Brandmark _01052021.eps"><metadata
     id="metadata8"><rdf:RDF><cc:Work
         rdf:about=""><dc:format>image/svg+xml</dc:format><dc:type
           rdf:resource="http://purl.org/dc/dcmitype/StillImage" /></cc:Work></rdf:RDF></metadata><defs
     id="defs6" /><sodipodi:namedview
     pagecolor="#ffffff"
     bordercolor="#666666"
     borderopacity="1"
     objecttolerance="10"
     gridtolerance="10"
     guidetolerance="10"
     inkscape:pageopacity="0"
     inkscape:pageshadow="2"
     inkscape:window-width="640"
     inkscape:window-height="480"
     id="namedview4" /><g
     id="g10"
     inkscape:groupmode="layer"
     inkscape:label="ink_ext_XXXXXX"
     transform="matrix(1.3333333,0,0,-1.3333333,0,89.093333)"><g
       id="g12"
       transform="scale(0.1)"><path
         d="m 1774,42.8438 c -121.02,0 -140.41,117.5232 -140.41,178.3122 0,58.672 19.05,175.692 133.21,175.692 7.09,0 30.88,0.211 39.64,0.289 V 42.8438 c -8.2,0 -29.24,0 -32.44,0 z m 151.71,26.3984 V 668.129 h -115.15 c 0,0 -1.45,0.066 -4.12,0.109 V 432.887 c -9.17,0.086 -36.75,0.304 -78.69,0.304 -95.67,0 -213.73,-73.371 -213.73,-212.035 0,-153.7576 115.34,-196.6794 147.64,-205.8747 37.23,-10.60552 148.17,-8.89849 148.17,-8.89849 H 1964.9 V 33.0586 c 0,0 -39.19,4.3008 -39.19,36.1836"
         style="fill:#d01c2e;fill-opacity:1;fill-rule:nonzero;stroke:none"
         id="path14" /><path
         d="m 2179.67,412.352 c 92.58,0 81.33,-147.907 81.33,-147.907 h -165.52 c 0.36,6.457 -1.82,147.907 84.19,147.907 z m 198.32,-192.2 c 0,69.953 -24.1,219.754 -196.65,219.754 -168.6,0 -210.88,-152.711 -210.88,-222.062 0,-90.317 50.58,-207.7776 204.84,-217.211187 131.94,-8.058593 173.4,87.523487 173.4,87.523487 l -35.49,0.0234 c 0,0 -32.21,-49.4609 -92.49,-49.4609 -87.79,0 -126.17,74.6212 -126.17,169.8512 v 11.582 h 283.44"
         style="fill:#d01c2e;fill-opacity:1;fill-rule:nonzero;stroke:none"
         id="path16" /><path
         d="m 2942.28,441.184 c -63.37,0 -116.08,-40.508 -135.1,-72.207 -19.96,37.574 -60.79,72.207 -140.33,72.207 -53.84,0 -99.96,-29.246 -124.3,-57.485 v 47.899 h -119.87 -39.23 V 404.93 c 0,0 39.23,2.32 39.23,-34.09 V 6.42969 h 119.87 V 340.066 c 17.9,23.868 46.92,48.684 86.02,48.684 68.89,0 76.06,-72.992 76.06,-99.32 0,-40.555 0,-283.00031 0,-283.00031 h 119.69 l 0.23,292.78531 c 0,11.445 -1.58,26.078 -6.02,41.57 17.94,23.641 46.76,47.965 85.47,47.965 68.89,0 76.06,-72.992 76.06,-99.32 0,-40.555 0,-283.00031 0,-283.00031 h 119.69 l 0.23,292.78531 c 0,45.676 -25.05,141.969 -157.7,141.969"
         style="fill:#d01c2e;fill-opacity:1;fill-rule:nonzero;stroke:none"
         id="path18" /><path
         d="M 1463.51,64.4961 V 302.586 c 0,45.699 -12.82,80.398 -38.64,104.047 -70.6,64.75 -172.87,33.637 -243.59,-10.035 l 11.16,-31.883 c 141.13,79.43 151.2,-42.399 151.2,-60.899 0,-18.507 0,-297.38631 0,-297.38631 h 159.15 V 33.6602 c 0,0 -39.28,-1.1368 -39.28,30.8359"
         style="fill:#d01c2e;fill-opacity:1;fill-rule:nonzero;stroke:none"
         id="path20" /><path
         d="M 518.961,432.922 V 406.25 c 0,0 39.227,2.32 39.227,-34.094 V 6.42969 H 678.074 V 354.246 394.82 432.922 H 558.188 518.961"
         style="fill:#d01c2e;fill-opacity:1;fill-rule:nonzero;stroke:none"
         id="path22" /><path
         d="m 245.867,42.4609 c -2.883,0 -60.484,0 -85.027,0 V 347.016 c 15.121,0.004 35.523,0.004 54.543,0.007 v -0.105 c 0,0 29.082,0 37.191,0 105.781,0 120.137,-97.34 120.137,-151.711 0,-56.348 -27.859,-152.7461 -126.844,-152.7461 z M 332.418,508.82 c 0,-47.636 -20.137,-125.672 -114.953,-125.672 -1.981,0 -33.836,0 -56.625,0 v 246.028 c 17.074,0.117 56.914,0.398 62.289,0.398 89.398,0 109.289,-74.824 109.289,-120.754 z m 35.477,-136.269 c 44.492,24.164 78.726,67.187 78.726,136.269 0,108.625 -95.473,156.621 -191.691,156.621 -24.012,0 -101.996,-0.043 -101.996,-0.043 v -0.05 H 0 V 638.68 c 0,0 39.1836,1.523 39.1836,-38.899 V 7.49219 c 0,0 250.3124,0 283.1134,0 55.004,0 180.383,45.20701 180.383,187.71481 0,125.801 -102.391,167.648 -134.785,177.344"
         style="fill:#d01c2e;fill-opacity:1;fill-rule:nonzero;stroke:none"
         id="path24" /><path
         d="m 1031.47,433.191 c -23.9,0 -61.853,0 -61.853,0 l 20.649,-25.851 c 38.274,0 53.024,-25.875 53.024,-51.75 0,-53.824 0,-349.16031 0,-349.16031 h 119.22 V 322.273 c 0,104.868 -100.43,110.918 -131.04,110.918"
         style="fill:#d01c2e;fill-opacity:1;fill-rule:nonzero;stroke:none"
         id="path26" /><path
         d="M 818.801,202.793 C 784.332,155.203 784.527,84.0117 822.059,39.5898 863.613,-9.28516 958.113,-1.49219 997.68,4.30078 l -0.16,25.87112 c -15.192,-2.0586 -33.387,-1.5274 -55.434,10.4648 -29.742,16.1758 -43.106,54.0742 -43.516,88.6173 -0.226,29.723 7.883,59.035 22.719,83.937 15.973,26.696 59.449,53.688 83.711,66.5 v 36.141 C 952.32,297.008 868.391,271.25 818.801,202.793"
         style="fill:#d01c2e;fill-opacity:1;fill-rule:nonzero;stroke:none"
         id="path28" /><path
         d="m 817.461,381.977 c 6.859,-12.051 9.144,-26.789 16.168,-38.918 19.344,-33.321 64.101,-26.219 83.351,3.437 11.536,17.801 10.153,36.797 1.95,52.981 -7.336,14.316 -20.137,26.445 -33.887,33.32 -17.406,8.738 -37.254,12.512 -57.121,12.512 -56.25,0 -101.609,-24.512 -121.676,-41.305 V 376.77 c 7.926,6.562 31.484,25.57 59.176,28.191 20.516,1.937 39.683,-1.289 52.039,-22.984"
         style="fill:#d01c2e;fill-opacity:1;fill-rule:nonzero;stroke:none"
         id="path30" /></g></g></svg>
